<svg xmlns="http://www.w3.org/2000/svg" viewBox="0 0 512 512"><path fill="#046cd8" d="M332,0H180A180,180,0,0,0,0,180V332A180,180,0,0,0,180,512H332A180,180,0,0,0,512,332V180A180,180,0,0,0,332,0Zm90,336.05A39,39,0,0,1,383.12,375H357.18v7.09A39,39,0,0,1,318.28,421H193.78a39,39,0,0,1-38.91-38.87V375H128.93A39,39,0,0,1,90,336.05V173.3a39,39,0,0,1,38.93-38.91h25.94v-6.48A39,39,0,0,1,193.78,89h124.5a39,39,0,0,1,38.9,38.91v6.48h25.94A39,39,0,0,1,422,173.3ZM331.28,127.91l0,254.16a13,13,0,0,1-13,13H193.78a13,13,0,0,1-13-13V127.91a13,13,0,0,1,13-13h124.5A13,13,0,0,1,331.28,127.91ZM115.93,173.3V336a13,13,0,0,0,13,13h25.94V160.3H128.93A13,13,0,0,0,115.93,173.3Zm267.19-13H357.18V349.07h25.91a13,13,0,0,0,13-13l0-162.74A13,13,0,0,0,383.12,160.33Z"/></svg>