<svg xmlns="http://www.w3.org/2000/svg" viewBox="0 0 512 512"><rect fill="#e0edfb" width="512" height="512" rx="180"/><path fill="#046cd8" d="M383.12,134.39H128.93A39,39,0,0,0,90,173.3V336.05a39,39,0,0,0,36.79,38.89h41a13,13,0,0,0,13-13h0a13,13,0,0,0-13-13H128.93a13,13,0,0,1-13-13V173.3a13,13,0,0,1,13-13h25.94v0H383.12a13,13,0,0,1,13,13l0,162.74a13,13,0,0,1-13,13H357.18V349h-13a13,13,0,0,0-13,13h0a13,13,0,0,0,13,13H366.4V375h16.72A39,39,0,0,0,422,336.05V173.3A39,39,0,0,0,383.12,134.39ZM269,362a13,13,0,1,1-13-13A13,13,0,0,1,269,362Zm27-13a13,13,0,1,0,13,13A13,13,0,0,0,296,349Zm-80,0a13,13,0,1,0,13,13A13,13,0,0,0,216,349Z"/></svg>