<svg xmlns="http://www.w3.org/2000/svg" viewBox="0 0 512 512"><path fill="#046cd8" d="M332,0H180A180,180,0,0,0,0,180V332A180,180,0,0,0,180,512H332A180,180,0,0,0,512,332V180A180,180,0,0,0,332,0ZM216,374.94a13,13,0,1,1,13-13A13,13,0,0,1,216,374.94Zm40,0a13,13,0,1,1,13-13A13,13,0,0,1,256,374.94Zm40,0a13,13,0,1,1,13-13A13,13,0,0,1,296,374.94Zm126-38.89A39,39,0,0,1,383.12,375H366.4v-.06H344.21a13,13,0,0,1-13-13h0a13,13,0,0,1,13-13h13v.07h25.91a13,13,0,0,0,13-13l0-162.74a13,13,0,0,0-13-13H154.87v0H128.93a13,13,0,0,0-13,13V336a13,13,0,0,0,13,13h38.88a13,13,0,0,1,13,13h0a13,13,0,0,1-13,13h-41A39,39,0,0,1,90,336.05V173.3a39,39,0,0,1,38.93-38.91H383.12A39,39,0,0,1,422,173.3Z"/></svg>