<svg xmlns="http://www.w3.org/2000/svg" viewBox="0 0 512 512"><rect fill="#e0edfb" width="512" height="512" rx="180"/><path fill="#046cd8" d="M383.12,134.39H357.18v-6.48A39,39,0,0,0,318.28,89H193.78a39,39,0,0,0-38.91,38.91v6.48H128.93A39,39,0,0,0,90,173.3V336.05A39,39,0,0,0,128.93,375h25.94v7.13A39,39,0,0,0,193.78,421h124.5a39,39,0,0,0,38.9-38.91V375h25.94A39,39,0,0,0,422,336.05V173.3A39,39,0,0,0,383.12,134.39ZM128.93,349a13,13,0,0,1-13-13h0V173.3a13,13,0,0,1,13-13h25.94V349Zm202.31,33.07a13,13,0,0,1-13,13H193.78a13,13,0,0,1-13-13V127.91a13,13,0,0,1,13-13h124.5a13,13,0,0,1,13,13Zm64.85-46a13,13,0,0,1-13,13H357.18V160.33h25.94a13,13,0,0,1,13,13Z"/></svg>